# xmcd
#
# Track frame offsets:
#	150
#	37465
#	62872
#	89288
#	109931
#	131804
#	146561
#	168655
#	186302
#	201290
#
# Disc length: 2998 seconds
# Revision: 0
# Processed by: cddbd v1.4PL0 Copyright (c) Steve Scherf et al.
# Submitted via: cdrLabel 7.0
#
DISCID=a20bb40a
DTITLE=Tom Waits - Blue Valentine
DYEAR=2003
DGENRE=Blues
TTITLE0=Somewhere (from West Side Story)
TTITLE1=Red Shoes By The Drugstore
TTITLE2=Christmas Card From a Hooker in Minneapolis
TTITLE3=Romeo is Bleeding
TTITLE4=$ 29.00
TTITLE5=Wrong Side of the Road
TTITLE6=Whistlin' Past the Graveyard
TTITLE7=Kentucky Avenue
TTITLE8=A Sweet Little Bullet From a Pretty Blue Gun
TTITLE9=Blue Valentines
EXTD=
EXTT0=
EXTT1=
EXTT2=
EXTT3=
EXTT4=
EXTT5=
EXTT6=
EXTT7=
EXTT8=
EXTT9=
PLAYORDER=
